<?xml version="1.0" encoding="UTF-8" standalone="no"?>
<!-- Created with Inkscape (http://www.inkscape.org/) -->

<svg
   width="1920"
   height="512.55688"
   viewBox="0 0 1920 512.55688"
   version="1.1"
   id="svg5"
   xmlns:xlink="http://www.w3.org/1999/xlink"
   xmlns="http://www.w3.org/2000/svg"
   xmlns:svg="http://www.w3.org/2000/svg">
  <defs
     id="defs2">
    <linearGradient
       id="linearGradient2921">
      <stop
         style="stop-color:#d0d0d0;stop-opacity:1;"
         offset="0"
         id="stop2917" />
      <stop
         style="stop-color:#d0d0d0;stop-opacity:0.7254902;"
         offset="0.69999999"
         id="stop3117" />
      <stop
         style="stop-color:#d0d0d0;stop-opacity:0;"
         offset="1"
         id="stop2919" />
    </linearGradient>
    <radialGradient
       xlink:href="#linearGradient2921"
       id="radialGradient2923"
       cx="1044.1729"
       cy="544.56641"
       fx="1044.1729"
       fy="544.56641"
       r="66.586929"
       gradientTransform="matrix(1.6482472,0,0,1.6482226,-676.88216,-353.00025)"
       gradientUnits="userSpaceOnUse" />
  </defs>
  <g
     id="layer1"
     transform="translate(0,-283.72156)">
    <rect
       style="opacity:1;fill:#ffffff;fill-opacity:1;stroke:none"
       id="rect1678"
       width="1920"
       height="512.55688"
       x="0"
       y="283.72156"
       rx="50"
       ry="50" />
    <g
       id="g1036"
       transform="translate(1349.4243,281.80805)">
      <path
         class="st0"
         d="m 436.1,328.7 c -0.3,1.1 -0.9,1.9 -1.7,2.3 l -0.2,0.1 c -0.8,0.3 -1.7,0.3 -2.8,0 -3.4,-0.8 -19.2,-2.6 -12.9,-21 l 3.7,-10.9 -0.8,-2.1 -4.1,-9.7 -25.7,-59.7 c -0.6,-1.2 -0.4,-2.4 0.1,-3.1 0.5,-0.8 1.4,-1.2 2.7,-1.2 H 409 c 1,0 1.9,0.3 2.5,0.8 0.7,0.5 1.1,1.3 1.5,2.2 l 18.9,44.1 13.5,-44 c 0.3,-1.1 0.8,-1.8 1.5,-2.3 0.7,-0.5 1.5,-0.8 2.6,-0.8 h 15.6 c 1.3,0 2.3,0.4 2.8,1.1 0.6,0.7 0.6,1.7 0.2,3.1 l -21,65.9 -8.1,25.6 z m -64,-59.1 h 16 c 2.5,0 3.9,1.6 3,4 -4.5,14.9 -18.7,25.1 -35.7,25.1 -22.1,0 -38.4,-16.4 -38.4,-37.7 0,-21.3 16.4,-37.7 38.4,-37.7 17,0 31.2,10.3 35.7,25.1 0.9,2.4 -0.6,4 -3,4 h -16 c -1.9,0 -3.2,-0.9 -4.4,-2.4 -2.6,-3.6 -7.1,-5.6 -12.3,-5.6 -9.4,0 -16.7,6.7 -16.7,16.6 0,9.9 7.3,16.6 16.7,16.6 5.2,0 9.7,-2 12.3,-5.4 1.3,-1.8 2.4,-2.6 4.4,-2.6 z M 294,227.1 v 3.7 c 1.8,-3.1 5.9,-7.6 16.7,-7.5 0.8,0 1.4,0.3 1.9,0.8 0.7,0.7 1,1.6 1,2.8 v 17.5 c 0,1.2 -0.2,2.1 -0.8,2.7 -0.5,0.6 -1.3,0.9 -2.2,0.9 -2.1,-0.1 -4.2,0.1 -6.1,0.7 -2,0.5 -3.7,1.4 -5.3,2.6 -1.6,1.2 -2.8,2.9 -3.7,4.9 -0.9,2 -1.4,4.5 -1.4,7.5 l -0.1,18.6 c -0.1,19.4 -15.2,16.5 -18.7,16.3 -1.2,-0.1 -2.1,-0.3 -2.8,-1 -0.7,-0.6 -1,-1.6 -1,-2.7 v -67.8 c 0,-1.2 0.3,-2.1 1,-2.7 0.7,-0.6 1.6,-1 2.8,-1 h 15 c 1.2,0 2.1,0.3 2.8,1 0.6,0.6 0.9,1.6 0.9,2.7 z m -65.1,-3.8 c 5.3,0 10.2,1 14.6,2.8 4.4,1.9 8.3,4.5 11.5,7.9 3.3,3.4 5.8,7.4 7.6,11.9 1.8,4.6 2.7,9.5 2.7,15 0,0.9 0,1.8 -0.1,2.7 0,0.9 -0.1,1.7 -0.2,2.6 -0.1,1.1 -0.6,2 -1.3,2.5 -0.7,0.5 -1.6,0.8 -2.7,0.8 h -48.3 c 0.9,2.8 2.2,5.1 3.9,6.8 1.7,1.7 3.7,3 5.9,3.8 2.2,0.8 4.6,1.2 7.2,1.2 2,0 4,-0.3 5.9,-1 1.9,-0.6 3.5,-1.5 4.8,-2.6 0.7,-0.6 1.4,-1 2.1,-1.4 0.7,-0.3 1.5,-0.5 2.4,-0.5 l 13.9,-0.1 c 1.3,0 2.3,0.4 2.9,1.1 0.6,0.7 0.6,1.7 0,2.8 -1.9,4.1 -4.4,7.6 -7.6,10.4 -3.2,2.8 -6.8,4.9 -11,6.3 -4.2,1.4 -8.7,2.1 -13.7,2.1 -6,0 -11.5,-1 -16.3,-2.9 -4.8,-1.9 -9,-4.5 -12.4,-8 -3.4,-3.4 -6.1,-7.4 -7.9,-11.9 -1.8,-4.6 -2.7,-9.5 -2.8,-14.8 0,-5.3 1,-10.3 2.8,-14.8 1.9,-4.5 4.5,-8.5 8,-11.9 3.4,-3.4 7.5,-6.1 12.2,-8 4.9,-1.8 10.1,-2.8 15.9,-2.8 z m -101.5,7.8 c 3,-2.4 6.2,-4.3 9.7,-5.6 3.6,-1.4 7.4,-2.1 11.3,-2.1 9.6,0 19,4.2 25.3,11.1 6.3,6.8 10.2,16.2 10.2,26.6 0,10.4 -3.9,19.8 -10.2,26.6 -6.3,6.8 -15.7,11.1 -25.3,11.1 -7,0 -14.4,-2.2 -19.6,-7 v 23.1 c 0,19.4 -15.2,16.5 -18.7,16.3 -1.2,-0.1 -2.1,-0.3 -2.8,-1 -0.6,-0.6 -1,-1.6 -1,-2.7 V 227.3 c 0,-1.2 0.3,-2.2 1,-2.8 0.7,-0.7 1.6,-1 2.9,-1 h 13.2 c 1.2,0 2.2,0.3 2.9,1 0.7,0.7 1,1.6 1,2.8 z m 37.5,29.8 c 0,-9.2 -7.5,-16.6 -16.8,-16.6 -9.3,0 -16.8,7.4 -16.8,16.6 0,9.2 7.5,16.6 16.8,16.6 9.3,0 16.8,-7.4 16.8,-16.6 z m 53.6,-15.8 c -2.7,1.9 -4.7,4.6 -5.8,8.1 h 31 c -0.8,-2.7 -1.9,-4.8 -3.5,-6.5 -1.5,-1.6 -3.3,-2.8 -5.3,-3.5 -2,-0.7 -4.1,-1.1 -6.2,-1 -4,0.1 -7.5,1 -10.2,2.9 z"
         id="path1021" />
      <path
         class="st0"
         d="m 72.7,229.9 c -1.2,-3.9 -4.3,-7.8 -8.1,-6.2 -2.2,0.9 -5.6,2 -9.9,2.2 -7.4,-6.9 -29.1,-20.7 -43.4,-28.5 0,0 1.7,5.1 4.2,14.6 0,0 -15.4,-12 -32.8,-19.8 0,0 4.9,10.1 5.3,13.3 0,0 -16,-5.6 -38.4,-7.7 0,0 10.8,7.5 15,13.3 0,0 -15.9,-0.8 -39.5,0 0,0 13.5,5.5 19.4,10.5 0,0 -28.1,2.9 -44,7.4 0,0 17.9,6.3 22.9,11 0,0 -22.8,6.5 -45.8,19.8 0,0 12.8,2.2 22.8,6.6 0,0 -12.7,8.9 -31.6,33.2 0,0 14,-2.7 23.5,-1.9 0,0 -12.1,14.2 -18.5,35.8 0,0 7,-4.5 13.8,-6.1 0,0 0.7,25.8 14.9,30 v 0 c 0.7,0.2 1.4,0.3 1.9,0.3 0.7,0 1.4,-0.1 2.1,-0.3 4.5,-1.3 7.9,-5.7 11.8,-10.8 1.3,-1.7 2.6,-3.4 4,-5.1 1.6,-2.2 3.6,-4.5 6.1,-6.6 5,-4.1 11.9,-7.2 20.3,-6 9.5,0.8 15.3,10.2 20.1,17.8 2.4,4 5.7,10.9 11.1,10.9 6,0 8.1,-7.2 10.8,-16.1 2.5,-8.3 6.3,-16.4 11.1,-23.5 9.4,-13.9 21.3,-21.5 35.7,-29 13.8,-7.2 26.8,-13.9 33.3,-24.2 3.3,-5.1 4.9,-11.4 4.8,-18.7 -0.3,-6.3 -1.7,-12.3 -2.9,-16.2 z M 4.7,355 c -2.9,0 -5.9,-2.5 -9.3,-7.5 2,-11.3 9.8,-25.8 19.2,-35.5 -2.4,9 -2.7,18.1 -3,25.4 v 0 c -0.2,4.7 -0.3,8.8 -1,11.7 -0.9,4 -2.9,6 -5.9,6 z m -79.8,-8.2 c 2.4,5.5 5.1,8.2 8,8.2 0.2,0 0.5,0 0.7,-0.1 4,-0.6 7.6,-8.3 10.7,-15.7 0.8,-1.9 1.5,-3.9 2.2,-5.6 -8.8,0.1 -17.3,7.1 -21.6,13.2 z"
         id="path1023" />
      <path
         class="st1"
         d="m 4.8,225.9 -22.2,-10.3 32.8,8.1 z m -50.5,3.1 27.4,7 12,-4 z m 54.1,13.8 5.9,-4.4 -26.4,5.6 z m -44,0 -9.4,6.3 -26,-2.5 z m 29.3,15.7 9.5,-5.3 -35.4,3.8 z m -26.2,5.9 -6.6,10.9 -33.2,8.1 z m -41.5,6.8 -25.7,11.3 31.6,-22.6 z m -8.9,13.5 -1,11.3 -16.6,15.2 z"
         id="path1025" />
    </g>
    <g
       id="g1126"
       transform="matrix(0.51081369,0,0,0.51081369,85.511129,408.96956)">
      <g
         id="layer1-5">
        <rect
           style="opacity:0.5;fill:#34d399;fill-opacity:1;stroke-width:1.00375"
           id="rect1372"
           width="314.30923"
           height="406.60901"
           x="-26.565063"
           y="134.75079"
           transform="rotate(-23.821262)"
           ry="8" />
        <rect
           style="fill:#34d399;fill-opacity:1;stroke-width:1.00375"
           id="rect850"
           width="314.30923"
           height="406.60901"
           x="77.571838"
           y="72.808708"
           ry="8"
           transform="rotate(-4.5744534)" />
      </g>
      <g
         id="layer3">
        <path
           id="path1657-3"
           style="display:inline;fill:#adedd6;fill-opacity:1;stroke:#adedd6;stroke-width:8.34923;stroke-linecap:butt;stroke-linejoin:round;stroke-miterlimit:4;stroke-dasharray:none;stroke-opacity:1"
           d="M 359.38947,355.95134 320.72935,176.52942 238.34613,238.94118 Z M 273.64124,273.06608 152.59788,156.05591 191.25804,335.47786 Z" />
        <g
           aria-label="Histoire"
           id="text1821"
           style="font-size:231.926px;line-height:1.25;font-family:Sen;-inkscape-font-specification:Sen;fill:#2bc78e;fill-opacity:1;stroke-width:5.79813"
           transform="matrix(1.1500556,0,0,1.1500556,-105.40156,-38.414233)">
          <path
             d="M 693.87591,344.24783 V 181.89964 h 25.04801 v 162.34819 z m -105.99018,0 V 181.89964 h 25.04801 v 162.34819 z m 10.90052,-68.88202 v -24.1203 h 106.22211 v 24.1203 z"
             style="font-family:'Lexend Deca';-inkscape-font-specification:'Lexend Deca';fill:#2bc78e;fill-opacity:1"
             id="path16857" />
          <path
             d="M 762.294,344.24783 V 222.48669 h 23.88838 v 121.76114 z m 11.5963,-148.66456 q -7.65356,0 -11.82822,-3.94274 -4.17467,-3.94274 -4.17467,-11.13245 0,-6.72585 4.17467,-10.90052 4.40659,-4.17467 11.82822,-4.17467 7.65356,0 11.82823,3.94274 4.17466,3.94275 4.17466,11.13245 0,6.72585 -4.40659,10.90052 -4.17467,4.17467 -11.5963,4.17467 z"
             style="font-family:'Lexend Deca';-inkscape-font-specification:'Lexend Deca';fill:#2bc78e;fill-opacity:1"
             id="path16859" />
          <path
             d="m 863.41371,346.56709 q -15.30711,0 -27.59919,-5.33429 -12.29208,-5.3343 -20.40949,-15.77097 l 16.23482,-13.91556 q 6.95778,8.11741 15.07519,11.82822 8.34934,3.47889 18.78601,3.47889 4.17466,0 7.65355,-0.9277 3.71082,-1.15963 6.26201,-3.24696 2.78311,-2.08734 4.17466,-4.87045 1.39156,-3.01504 1.39156,-6.49393 0,-6.03007 -4.40659,-9.74089 -2.31926,-1.62348 -7.42164,-3.47889 -4.87044,-2.08733 -12.75593,-4.17467 -13.4517,-3.47889 -22.03297,-7.88548 -8.58126,-4.4066 -13.21978,-9.97282 -3.47889,-4.40659 -5.10237,-9.50897 -1.62348,-5.33429 -1.62348,-11.59629 0,-7.65356 3.24696,-13.91556 3.47889,-6.49393 9.27704,-11.13245 6.03008,-4.87045 13.91556,-7.42163 8.11741,-2.55119 17.16253,-2.55119 8.58126,0 16.93059,2.31926 8.58126,2.31926 15.77097,6.72585 7.18971,4.4066 12.06015,10.43667 l -13.68363,15.07519 q -4.4066,-4.40659 -9.74089,-7.65355 -5.10237,-3.47889 -10.43667,-5.3343 -5.3343,-1.85541 -9.74089,-1.85541 -4.87045,0 -8.81319,0.9277 -3.94274,0.92771 -6.72586,2.78312 -2.55118,1.8554 -3.94274,4.63852 -1.39155,2.78311 -1.39155,6.262 0.23192,3.01504 1.39155,5.79815 1.39156,2.55118 3.71082,4.40659 2.55118,1.85541 7.65356,3.94274 5.10237,2.08734 12.98785,3.94274 11.5963,3.01504 19.01793,6.72586 7.65356,3.47889 12.06015,8.11741 4.63852,4.40659 6.49393,10.20474 1.85541,5.79815 1.85541,12.98786 0,10.43667 -6.03008,18.786 -5.79815,8.11741 -15.77096,12.75593 -9.97282,4.63852 -22.2649,4.63852 z"
             style="font-family:'Lexend Deca';-inkscape-font-specification:'Lexend Deca';fill:#2bc78e;fill-opacity:1"
             id="path16861" />
          <path
             d="M 948.99398,344.24783 V 191.4086 h 23.88838 v 152.83923 z m -25.27993,-98.56854 v -23.1926 h 77.46325 v 23.1926 z"
             style="font-family:'Lexend Deca';-inkscape-font-specification:'Lexend Deca';fill:#2bc78e;fill-opacity:1"
             id="path16863" />
          <path
             d="m 1076.5528,346.56709 q -17.8583,0 -32.0058,-8.11741 -13.9156,-8.34933 -22.033,-22.49682 -8.1174,-14.37941 -8.1174,-32.70156 0,-18.32216 8.1174,-32.46964 8.1174,-14.37941 22.033,-22.49682 14.1475,-8.34934 32.0058,-8.34934 17.6263,0 31.5419,8.34934 14.1475,8.11741 22.2649,22.49682 8.1174,14.14748 8.1174,32.46964 0,18.32215 -8.1174,32.70156 -8.1174,14.14749 -22.2649,22.49682 -13.9156,8.11741 -31.5419,8.11741 z m 0,-21.80104 q 10.9005,0 19.4818,-5.3343 8.5812,-5.56622 13.4517,-14.84326 4.8704,-9.50897 4.6385,-21.33719 0.2319,-12.06016 -4.6385,-21.33719 -4.8705,-9.50897 -13.4517,-14.84327 -8.5813,-5.3343 -19.4818,-5.3343 -10.9005,0 -19.7137,5.56623 -8.5813,5.3343 -13.4517,14.84326 -4.8705,9.27704 -4.6386,21.10527 -0.2319,11.82822 4.6386,21.33719 4.8704,9.27704 13.4517,14.84326 8.8132,5.3343 19.7137,5.3343 z"
             style="font-family:'Lexend Deca';-inkscape-font-specification:'Lexend Deca';fill:#2bc78e;fill-opacity:1"
             id="path16865" />
          <path
             d="M 1168.3954,344.24783 V 222.48669 h 23.8884 v 121.76114 z m 11.5963,-148.66456 q -7.6536,0 -11.8282,-3.94274 -4.1747,-3.94274 -4.1747,-11.13245 0,-6.72585 4.1747,-10.90052 4.4065,-4.17467 11.8282,-4.17467 7.6535,0 11.8282,3.94274 4.1747,3.94275 4.1747,11.13245 0,6.72585 -4.4066,10.90052 -4.1747,4.17467 -11.5963,4.17467 z"
             style="font-family:'Lexend Deca';-inkscape-font-specification:'Lexend Deca';fill:#2bc78e;fill-opacity:1"
             id="path16867" />
          <path
             d="M 1228.928,344.24783 V 222.48669 h 24.1203 v 38.26779 l -2.3192,-9.27704 q 2.5512,-8.81319 8.5812,-16.0029 6.262,-7.1897 14.1475,-11.36437 8.1174,-4.17467 16.6987,-4.17467 3.9427,0 7.4216,0.69578 3.7109,0.69578 5.7982,1.62348 l -6.262,25.97571 q -2.7831,-1.15963 -6.262,-1.85541 -3.247,-0.9277 -6.4939,-0.9277 -6.262,0 -12.0602,2.55119 -5.5662,2.31926 -9.9728,6.72585 -4.1747,4.17467 -6.7259,9.97282 -2.5512,5.56622 -2.5512,12.29207 v 67.25854 z"
             style="font-family:'Lexend Deca';-inkscape-font-specification:'Lexend Deca';fill:#2bc78e;fill-opacity:1"
             id="path16869" />
          <path
             d="m 1374.1134,346.56709 q -18.786,0 -33.3973,-7.88548 -14.3794,-8.11741 -22.7288,-22.03297 -8.1174,-13.91556 -8.1174,-32.00579 0,-14.37941 4.6386,-26.20763 4.6385,-11.82823 12.7559,-20.40949 8.3493,-8.81319 19.7137,-13.45171 11.5963,-4.87045 25.048,-4.87045 11.8282,0 22.033,4.63852 10.2047,4.4066 17.6263,12.29208 7.6536,7.88549 11.5963,18.78601 4.1747,10.66859 3.9428,23.42452 l -0.2319,10.20475 h -99.4963 l -5.3343,-19.01794 h 84.1891 l -3.4788,3.94275 v -5.56623 q -0.6958,-7.65355 -5.1024,-13.68363 -4.4066,-6.03008 -11.1325,-9.50897 -6.7258,-3.47889 -14.6113,-3.47889 -12.524,0 -21.1053,4.87045 -8.5812,4.63852 -12.9878,13.91556 -4.4066,9.04511 -4.4066,22.49682 0,12.75593 5.3343,22.2649 5.3343,9.27704 15.0752,14.37941 9.7409,5.10237 22.4968,5.10237 9.0451,0 16.6987,-3.01504 7.8855,-3.01504 16.9306,-10.90052 l 12.0601,16.9306 q -5.5662,5.56622 -13.6836,9.74089 -7.8855,4.17467 -16.9306,6.72585 -8.8132,2.31926 -17.3945,2.31926 z"
             style="font-family:'Lexend Deca';-inkscape-font-specification:'Lexend Deca';fill:#2bc78e;fill-opacity:1"
             id="path16871" />
        </g>
      </g>
      <g
         id="layer2"
         style="display:none">
        <path
           id="path1657"
           style="fill:#b4fae2;fill-opacity:1;stroke:#b4fae2;stroke-width:8;stroke-linecap:butt;stroke-linejoin:round;stroke-miterlimit:4;stroke-dasharray:none;stroke-opacity:1"
           d="m 296,103.98242 -135.53125,177.9668 h 88.70117 z M 262.83008,230.05078 216,408.01758 351.53125,230.05078 Z"
           transform="rotate(-4.156553,256,256.00691)" />
      </g>
    </g>
    <path
       id="rect1264"
       style="fill:url(#radialGradient2923);fill-opacity:1;stroke:none;stroke-width:0.276639"
       d="m 942.02497,434.81632 -7.60382,7.60383 102.14625,102.14626 -102.14625,102.14625 7.60382,7.60383 102.14633,-102.14625 102.1461,102.14625 7.6072,-7.60383 -102.1463,-102.14625 102.1463,-102.14626 -7.6072,-7.60383 -102.1461,102.14625 z" />
  </g>
  <style
     type="text/css"
     id="style1019">
	.st0{fill:#5C007B;}
	.st1{fill:#FFFFFF;}
</style>
</svg>
